# xmcd
#
# Track frame offsets:
#	150
#	14681
#	27783
#	38798
#	51172
#	63334
#	74367
#	87081
#	99712
#	113007
#	127098
#	138939
#	150766
#	163873
#	176601
#	188731
#	200491
#	213689
#	225907
#	238930
#	250468
#	264384
#	276474
#	288665
#	303393
#
# Disc length: 4230 seconds
# Revision: 2
# Processed by: cddbd v1.5.2PL0 Copyright (c) Steve Scherf et al.
# Submitted via: dBpowerAMP V12.0
#
DISCID=6e108419
DTITLE=Sister Rosetta Tharpe - Up Above My Head
DYEAR=1947
DGENRE=Blues
TTITLE0=My Journey to the Sky
TTITLE1=Bring Back Those Happy Days
TTITLE2=Lay Down Your Soul
TTITLE3=Stretch Out
TTITLE4=Beams of Heaven
TTITLE5=Don't Take Everybody to be Your Friend
TTITLE6=My Lord and I
TTITLE7=Teach Me to be Right
TTITLE8=Two Little Fishes and Five Loaves of Bread
TTITLE9=Jesus Taught Me How to Pray
TTITLE10=Let That Liar Alone
TTITLE11=Forgive Me Lord and Try Me One More Time
TTITLE12=What's That News
TTITLE13=This Train
TTITLE14=I Claim Jesus First
TTITLE15=That's All
TTITLE16=Sleep on Darling Mother
TTITLE17=Heaven is Not My Home
TTITLE18=I Looked Down the Line (and Wondered)
TTITLE19=God Don't Like It
TTITLE20=Nobody's Fault But Mine
TTITLE21=Family Prayer
TTITLE22=Shout, Sister, Shout! (with Lucky Millinder and Orchestra)
TTITLE23=Were You There When They Crucified My Lord?
TTITLE24=Oh, When I Come to the End of My Journey
EXTD=
EXTT0=
EXTT1=
EXTT2=
EXTT3=
EXTT4=
EXTT5=
EXTT6=
EXTT7=
EXTT8=
EXTT9=
EXTT10=
EXTT11=
EXTT12=
EXTT13=
EXTT14=
EXTT15=
EXTT16=
EXTT17=
EXTT18=
EXTT19=
EXTT20=
EXTT21=
EXTT22=
EXTT23=
EXTT24=
PLAYORDER=
